<svg xmlns="http://www.w3.org/2000/svg" width="680" height="540" viewBox="0 0 680 540" role="img" font-family="'Microsoft YaHei','PingFang SC','Hiragino Sans GB',sans-serif"><title>Cross-border e-commerce AI middle platform</title><desc>Four client needs into one AI platform with human approval.</desc><rect x="0" y="0" width="680" height="540" fill="#ffffff"/><defs><marker id="ah" markerWidth="8" markerHeight="8" refX="6" refY="3" orient="auto"><path d="M0,0 L6,3 L0,6 Z" fill="#888780"/></marker></defs><rect x="40" y="50" width="138" height="50" rx="6" fill="#F1EFE8" stroke="#888780" stroke-width="1"/><text x="109.0" y="80.0" text-anchor="middle" font-size="14" font-weight="500" fill="#444441">电商运营</text><rect x="194" y="50" width="138" height="50" rx="6" fill="#F1EFE8" stroke="#888780" stroke-width="1"/><text x="263.0" y="80.0" text-anchor="middle" font-size="14" font-weight="500" fill="#444441">付费投放</text><rect x="348" y="50" width="138" height="50" rx="6" fill="#F1EFE8" stroke="#888780" stroke-width="1"/><text x="417.0" y="80.0" text-anchor="middle" font-size="14" font-weight="500" fill="#444441">SEO 需求</text><rect x="502" y="50" width="138" height="50" rx="6" fill="#F1EFE8" stroke="#888780" stroke-width="1"/><text x="571.0" y="80.0" text-anchor="middle" font-size="14" font-weight="500" fill="#444441">建站需求</text><line x1="109.0" y1="100" x2="109.0" y2="118" stroke="#888780" stroke-width="1.5" marker-end="url(#ah)"/><line x1="263.0" y1="100" x2="263.0" y2="118" stroke="#888780" stroke-width="1.5" marker-end="url(#ah)"/><line x1="417.0" y1="100" x2="417.0" y2="118" stroke="#888780" stroke-width="1.5" marker-end="url(#ah)"/><line x1="571.0" y1="100" x2="571.0" y2="118" stroke="#888780" stroke-width="1.5" marker-end="url(#ah)"/><rect x="40" y="120" width="600" height="56" rx="6" fill="#EEEDFE" stroke="#534AB7" stroke-width="1"/><text x="340.0" y="145.0" text-anchor="middle" font-size="14" font-weight="500" fill="#3C3489">数据中台 · 唯一数据源</text><text x="340.0" y="163.0" text-anchor="middle" font-size="12" fill="#534AB7">商品 / 成本 / 订单 / 库存 全在一处</text><line x1="340" y1="176" x2="340" y2="194" stroke="#888780" stroke-width="1.5" marker-end="url(#ah)"/><rect x="40" y="196" width="600" height="56" rx="6" fill="#EEEDFE" stroke="#534AB7" stroke-width="1"/><text x="340.0" y="221.0" text-anchor="middle" font-size="14" font-weight="500" fill="#3C3489">联邦派发</text><text x="340.0" y="239.0" text-anchor="middle" font-size="12" fill="#534AB7">任务排队 → 本地 AI agent 接单</text><line x1="340" y1="252" x2="109.0" y2="270" stroke="#888780" stroke-width="1.5" marker-end="url(#ah)"/><line x1="340" y1="252" x2="263.0" y2="270" stroke="#888780" stroke-width="1.5" marker-end="url(#ah)"/><line x1="340" y1="252" x2="417.0" y2="270" stroke="#888780" stroke-width="1.5" marker-end="url(#ah)"/><line x1="340" y1="252" x2="571.0" y2="270" stroke="#888780" stroke-width="1.5" marker-end="url(#ah)"/><rect x="40" y="272" width="138" height="56" rx="6" fill="#E1F5EE" stroke="#0F6E56" stroke-width="1"/><text x="109.0" y="297.0" text-anchor="middle" font-size="14" font-weight="500" fill="#085041">上架</text><text x="109.0" y="315.0" text-anchor="middle" font-size="12" fill="#0F6E56">扫描·定价·上架</text><rect x="194" y="272" width="138" height="56" rx="6" fill="#E1F5EE" stroke="#0F6E56" stroke-width="1"/><text x="263.0" y="297.0" text-anchor="middle" font-size="14" font-weight="500" fill="#085041">SEO</text><text x="263.0" y="315.0" text-anchor="middle" font-size="12" fill="#0F6E56">关键词到排名</text><rect x="348" y="272" width="138" height="56" rx="6" fill="#E1F5EE" stroke="#0F6E56" stroke-width="1"/><text x="417.0" y="297.0" text-anchor="middle" font-size="14" font-weight="500" fill="#085041">创意</text><text x="417.0" y="315.0" text-anchor="middle" font-size="12" fill="#0F6E56">按规格出图</text><rect x="502" y="272" width="138" height="56" rx="6" fill="#E1F5EE" stroke="#0F6E56" stroke-width="1"/><text x="571.0" y="297.0" text-anchor="middle" font-size="14" font-weight="500" fill="#085041">投放</text><text x="571.0" y="315.0" text-anchor="middle" font-size="12" fill="#0F6E56">搭建+监控</text><line x1="109.0" y1="328" x2="340" y2="346" stroke="#888780" stroke-width="1.5" marker-end="url(#ah)"/><line x1="263.0" y1="328" x2="340" y2="346" stroke="#888780" stroke-width="1.5" marker-end="url(#ah)"/><line x1="417.0" y1="328" x2="340" y2="346" stroke="#888780" stroke-width="1.5" marker-end="url(#ah)"/><line x1="571.0" y1="328" x2="340" y2="346" stroke="#888780" stroke-width="1.5" marker-end="url(#ah)"/><rect x="40" y="348" width="600" height="56" rx="6" fill="#FAEEDA" stroke="#854F0B" stroke-width="1"/><text x="340.0" y="373.0" text-anchor="middle" font-size="14" font-weight="500" fill="#633806">人工审批门</text><text x="340.0" y="391.0" text-anchor="middle" font-size="12" fill="#854F0B">每个花钱 / 发布的动作都过人审</text><line x1="340" y1="404" x2="340" y2="422" stroke="#888780" stroke-width="1.5" marker-end="url(#ah)"/><rect x="40" y="424" width="600" height="56" rx="6" fill="#F1EFE8" stroke="#888780" stroke-width="1"/><text x="340.0" y="449.0" text-anchor="middle" font-size="14" font-weight="500" fill="#444441">成交产出</text><text x="340.0" y="467.0" text-anchor="middle" font-size="12" fill="#5F5E5A">在售商品 · 排名页面 · 在跑的广告</text><rect x="40" y="502" width="14" height="14" rx="3" fill="#EEEDFE" stroke="#534AB7"/><text x="60" y="513" font-size="12" fill="#5F5E5A">中台</text><rect x="160" y="502" width="14" height="14" rx="3" fill="#E1F5EE" stroke="#0F6E56"/><text x="180" y="513" font-size="12" fill="#5F5E5A">AI 管线</text><rect x="280" y="502" width="14" height="14" rx="3" fill="#FAEEDA" stroke="#854F0B"/><text x="300" y="513" font-size="12" fill="#5F5E5A">人工把关</text><rect x="400" y="502" width="14" height="14" rx="3" fill="#F1EFE8" stroke="#888780"/><text x="420" y="513" font-size="12" fill="#5F5E5A">输入 / 输出</text></svg>