<svg xmlns="http://www.w3.org/2000/svg" width="680" height="408" viewBox="0 0 680 408" role="img" font-family="'Microsoft YaHei','PingFang SC','Hiragino Sans GB',sans-serif"><title>Web build pipeline</title><desc>Web build pipeline, Chinese.</desc><rect x="0" y="0" width="680" height="408" fill="#ffffff"/><defs><marker id="ah" markerWidth="8" markerHeight="8" refX="6" refY="3" orient="auto"><path d="M0,0 L6,3 L0,6 Z" fill="#888780"/></marker></defs><text x="40" y="28" font-size="15" font-weight="500" fill="#2C2C2A">建站管线</text><rect x="140" y="48" width="400" height="46" rx="6" fill="#F1EFE8" stroke="#888780" stroke-width="1"/><text x="340.0" y="68.0" text-anchor="middle" font-size="14" font-weight="500" fill="#444441">需求梳理</text><text x="340.0" y="86.0" text-anchor="middle" font-size="12" fill="#5F5E5A">目标·货盘·品牌</text><line x1="340" y1="94" x2="340" y2="114" stroke="#888780" stroke-width="1.5" marker-end="url(#ah)"/><rect x="140" y="114" width="400" height="46" rx="6" fill="#E1F5EE" stroke="#0F6E56" stroke-width="1"/><text x="340.0" y="134.0" text-anchor="middle" font-size="14" font-weight="500" fill="#085041">搭建店铺</text><text x="340.0" y="152.0" text-anchor="middle" font-size="12" fill="#0F6E56">Shopify 或 WordPress</text><line x1="340" y1="160" x2="340" y2="180" stroke="#888780" stroke-width="1.5" marker-end="url(#ah)"/><rect x="140" y="180" width="400" height="46" rx="6" fill="#E1F5EE" stroke="#0F6E56" stroke-width="1"/><text x="340.0" y="200.0" text-anchor="middle" font-size="14" font-weight="500" fill="#085041">追踪与 SEO 地基</text><text x="340.0" y="218.0" text-anchor="middle" font-size="12" fill="#0F6E56">分析·结构·速度</text><line x1="340" y1="226" x2="340" y2="246" stroke="#888780" stroke-width="1.5" marker-end="url(#ah)"/><rect x="140" y="246" width="400" height="46" rx="6" fill="#FAEEDA" stroke="#854F0B" stroke-width="1"/><text x="340.0" y="266.0" text-anchor="middle" font-size="14" font-weight="500" fill="#633806">上线评审</text><text x="340.0" y="284.0" text-anchor="middle" font-size="12" fill="#854F0B">上线前你签字</text><line x1="340" y1="292" x2="340" y2="312" stroke="#888780" stroke-width="1.5" marker-end="url(#ah)"/><rect x="140" y="312" width="400" height="46" rx="6" fill="#F1EFE8" stroke="#888780" stroke-width="1"/><text x="340.0" y="332.0" text-anchor="middle" font-size="14" font-weight="500" fill="#444441">优化与迭代</text><text x="340.0" y="350.0" text-anchor="middle" font-size="12" fill="#5F5E5A">转化与性能</text><rect x="40" y="378" width="14" height="14" rx="3" fill="#E1F5EE" stroke="#0F6E56"/><text x="60" y="389" font-size="12" fill="#5F5E5A">AI 自动跑</text><rect x="160" y="378" width="14" height="14" rx="3" fill="#FAEEDA" stroke="#854F0B"/><text x="180" y="389" font-size="12" fill="#5F5E5A">你审批</text></svg>