<svg xmlns="http://www.w3.org/2000/svg" width="680" height="474" viewBox="0 0 680 474" role="img" font-family="'Microsoft YaHei','PingFang SC','Hiragino Sans GB',sans-serif"><title>SEO pipeline</title><desc>SEO pipeline, Chinese.</desc><rect x="0" y="0" width="680" height="474" fill="#ffffff"/><defs><marker id="ah" markerWidth="8" markerHeight="8" refX="6" refY="3" orient="auto"><path d="M0,0 L6,3 L0,6 Z" fill="#888780"/></marker></defs><text x="40" y="28" font-size="15" font-weight="500" fill="#2C2C2A">SEO 管线</text><rect x="140" y="48" width="400" height="46" rx="6" fill="#F1EFE8" stroke="#888780" stroke-width="1"/><text x="340.0" y="68.0" text-anchor="middle" font-size="14" font-weight="500" fill="#444441">诊断与体检</text><text x="340.0" y="86.0" text-anchor="middle" font-size="12" fill="#5F5E5A">技术 + 站内健康度</text><line x1="340" y1="94" x2="340" y2="114" stroke="#888780" stroke-width="1.5" marker-end="url(#ah)"/><rect x="140" y="114" width="400" height="46" rx="6" fill="#E1F5EE" stroke="#0F6E56" stroke-width="1"/><text x="340.0" y="134.0" text-anchor="middle" font-size="14" font-weight="500" fill="#085041">关键词地图</text><text x="340.0" y="152.0" text-anchor="middle" font-size="12" fill="#0F6E56">用真实搜索量验证</text><line x1="340" y1="160" x2="340" y2="180" stroke="#888780" stroke-width="1.5" marker-end="url(#ah)"/><rect x="140" y="180" width="400" height="46" rx="6" fill="#E1F5EE" stroke="#0F6E56" stroke-width="1"/><text x="340.0" y="200.0" text-anchor="middle" font-size="14" font-weight="500" fill="#085041">页面与类目优化</text><text x="340.0" y="218.0" text-anchor="middle" font-size="12" fill="#0F6E56">标题·结构·内容</text><line x1="340" y1="226" x2="340" y2="246" stroke="#888780" stroke-width="1.5" marker-end="url(#ah)"/><rect x="140" y="246" width="400" height="46" rx="6" fill="#E1F5EE" stroke="#0F6E56" stroke-width="1"/><text x="340.0" y="266.0" text-anchor="middle" font-size="14" font-weight="500" fill="#085041">内容·外链·GBP</text><text x="340.0" y="284.0" text-anchor="middle" font-size="12" fill="#0F6E56">已起草, 待发布</text><line x1="340" y1="292" x2="340" y2="312" stroke="#888780" stroke-width="1.5" marker-end="url(#ah)"/><rect x="140" y="312" width="400" height="46" rx="6" fill="#FAEEDA" stroke="#854F0B" stroke-width="1"/><text x="340.0" y="332.0" text-anchor="middle" font-size="14" font-weight="500" fill="#633806">发布前审批</text><text x="340.0" y="350.0" text-anchor="middle" font-size="12" fill="#854F0B">不审不上线</text><line x1="340" y1="358" x2="340" y2="378" stroke="#888780" stroke-width="1.5" marker-end="url(#ah)"/><rect x="140" y="378" width="400" height="46" rx="6" fill="#F1EFE8" stroke="#888780" stroke-width="1"/><text x="340.0" y="398.0" text-anchor="middle" font-size="14" font-weight="500" fill="#444441">月度报告</text><text x="340.0" y="416.0" text-anchor="middle" font-size="12" fill="#5F5E5A">排名与流量, 5 分钟读完</text><rect x="40" y="444" width="14" height="14" rx="3" fill="#E1F5EE" stroke="#0F6E56"/><text x="60" y="455" font-size="12" fill="#5F5E5A">AI 自动跑</text><rect x="160" y="444" width="14" height="14" rx="3" fill="#FAEEDA" stroke="#854F0B"/><text x="180" y="455" font-size="12" fill="#5F5E5A">你审批</text></svg>