<svg xmlns="http://www.w3.org/2000/svg" width="680" height="430" viewBox="0 0 680 430" role="img" font-family="'Microsoft YaHei','PingFang SC','Hiragino Sans GB',sans-serif"><title>跨境电商 AI 卖点地图</title><desc>三层卖点:旗舰AI运营中台总包,核心4(上架/选品/定价/独立站流量),强支撑4(客服/创意/对账/建站),利基进阶。</desc><rect x="0" y="0" width="680" height="430" fill="#ffffff"/><text x="40" y="30" font-size="16" font-weight="500" fill="#2C2C2A">跨境电商 AI 卖点地图</text><text x="40" y="58" font-size="12" font-weight="500" fill="#888780" letter-spacing="1">旗舰 · 总包(客单最高)</text><rect x="40" y="66" width="600" height="62" rx="6" fill="#EEEDFE" stroke="#534AB7" stroke-width="1"/><text x="340.0" y="94.0" text-anchor="middle" font-size="15" font-weight="500" fill="#3C3489">跨境电商 AI 运营中台搭建</text><text x="340.0" y="112.0" text-anchor="middle" font-size="12" fill="#534AB7">选品 · 上架 · 定价 · 流量 · 客服 · 对账 —— 一套 AI 系统,AI 跑量 · 人审批</text><text x="40" y="158" font-size="12" font-weight="500" fill="#888780" letter-spacing="1">核心卖点 · 单点入口</text><rect x="40" y="166" width="138" height="58" rx="6" fill="#E1F5EE" stroke="#0F6E56" stroke-width="1"/><text x="109.0" y="192.0" text-anchor="middle" font-size="14" font-weight="500" fill="#085041">多平台上架</text><text x="109.0" y="210.0" text-anchor="middle" font-size="12" fill="#0F6E56">全平台铺货</text><rect x="194" y="166" width="138" height="58" rx="6" fill="#E1F5EE" stroke="#0F6E56" stroke-width="1"/><text x="263.0" y="192.0" text-anchor="middle" font-size="14" font-weight="500" fill="#085041">AI 选品 · 货盘</text><text x="263.0" y="210.0" text-anchor="middle" font-size="12" fill="#0F6E56">1688 引擎+打分</text><rect x="348" y="166" width="138" height="58" rx="6" fill="#E1F5EE" stroke="#0F6E56" stroke-width="1"/><text x="417.0" y="192.0" text-anchor="middle" font-size="14" font-weight="500" fill="#085041">智能定价 · 核价</text><text x="417.0" y="210.0" text-anchor="middle" font-size="12" fill="#0F6E56">成本底价+调价</text><rect x="502" y="166" width="138" height="58" rx="6" fill="#E1F5EE" stroke="#0F6E56" stroke-width="1"/><text x="571.0" y="192.0" text-anchor="middle" font-size="14" font-weight="500" fill="#085041">独立站流量</text><text x="571.0" y="210.0" text-anchor="middle" font-size="12" fill="#0F6E56">投放 + SEO</text><text x="40" y="254" font-size="12" font-weight="500" fill="#888780" letter-spacing="1">强支撑</text><rect x="40" y="262" width="138" height="58" rx="6" fill="#F1EFE8" stroke="#888780" stroke-width="1"/><text x="109.0" y="288.0" text-anchor="middle" font-size="14" font-weight="500" fill="#444441">AI 客服 · 售后</text><text x="109.0" y="306.0" text-anchor="middle" font-size="12" fill="#5F5E5A">多语种+RAG</text><rect x="194" y="262" width="138" height="58" rx="6" fill="#F1EFE8" stroke="#888780" stroke-width="1"/><text x="263.0" y="288.0" text-anchor="middle" font-size="14" font-weight="500" fill="#444441">创意 · 出图 · 视频</text><text x="263.0" y="306.0" text-anchor="middle" font-size="12" fill="#5F5E5A">全比例素材</text><rect x="348" y="262" width="138" height="58" rx="6" fill="#F1EFE8" stroke="#888780" stroke-width="1"/><text x="417.0" y="288.0" text-anchor="middle" font-size="14" font-weight="500" fill="#444441">账单对账 · 财务</text><text x="417.0" y="306.0" text-anchor="middle" font-size="12" fill="#5F5E5A">多平台对账</text><rect x="502" y="262" width="138" height="58" rx="6" fill="#F1EFE8" stroke="#888780" stroke-width="1"/><text x="571.0" y="288.0" text-anchor="middle" font-size="14" font-weight="500" fill="#444441">建站</text><text x="571.0" y="306.0" text-anchor="middle" font-size="12" fill="#5F5E5A">Shopify / WP</text><text x="40" y="350" font-size="12" font-weight="500" fill="#888780" letter-spacing="1">利基 · 进阶</text><rect x="40" y="358" width="600" height="34" rx="6" fill="#F1EFE8" stroke="#888780" stroke-width="1"/><text x="340.0" y="380.0" text-anchor="middle" font-size="13" font-weight="500" fill="#444441">订单履约 · 欺诈风控  ·  合规与异常监控  ·  海外仓 WMS/TMS 数字化</text><text x="40" y="416" font-size="11" fill="#888780">全部能力源自「某澳洲跨境电商集团」实战 · 已匿名</text></svg>